<mxfile host="65bd71144e">
    <diagram id="mp2pyvY2xMNZjPaLXUC7" name="第 1 页">
        <mxGraphModel dx="854" dy="876" grid="1" gridSize="10" guides="1" tooltips="1" connect="1" arrows="1" fold="1" page="1" pageScale="1" pageWidth="1169" pageHeight="1654" math="0" shadow="0">
            <root>
                <mxCell id="0"/>
                <mxCell id="1" parent="0"/>
                <mxCell id="4" value="20+3*size_type Bytes" style="text;html=1;strokeColor=none;fillColor=none;align=center;verticalAlign=middle;whiteSpace=wrap;rounded=0;" parent="1" vertex="1">
                    <mxGeometry x="450" y="360" width="60" height="30" as="geometry"/>
                </mxCell>
                <mxCell id="5" value="2&lt;br&gt;(长度)" style="rounded=0;whiteSpace=wrap;html=1;fillColor=none;" parent="1" vertex="1">
                    <mxGeometry x="80" y="430" width="40" height="40" as="geometry"/>
                </mxCell>
                <mxCell id="6" value="0x18 0x00 0x00 0x00" style="rounded=0;whiteSpace=wrap;html=1;fillColor=none;" parent="1" vertex="1">
                    <mxGeometry x="120" y="430" width="160" height="40" as="geometry"/>
                </mxCell>
                <mxCell id="7" value="4 Bytes" style="text;html=1;strokeColor=none;fillColor=none;align=center;verticalAlign=middle;whiteSpace=wrap;rounded=0;" parent="1" vertex="1">
                    <mxGeometry x="170" y="470" width="60" height="30" as="geometry"/>
                </mxCell>
                <mxCell id="8" value="size_type Bytes" style="text;html=1;strokeColor=none;fillColor=none;align=center;verticalAlign=middle;whiteSpace=wrap;rounded=0;" parent="1" vertex="1">
                    <mxGeometry x="70" y="480" width="60" height="30" as="geometry"/>
                </mxCell>
                <mxCell id="9" value="std::map&amp;lt;int,std::string&amp;gt;{{42,&quot;Hello&quot;},{24,&quot;Student&quot;}}" style="rounded=0;whiteSpace=wrap;html=1;fillColor=none;" parent="1" vertex="1">
                    <mxGeometry x="80" y="390" width="760" height="40" as="geometry"/>
                </mxCell>
                <mxCell id="10" value="0x24 0x00 0x00 0x00" style="rounded=0;whiteSpace=wrap;html=1;fillColor=none;" parent="1" vertex="1">
                    <mxGeometry x="520" y="430" width="160" height="40" as="geometry"/>
                </mxCell>
                <mxCell id="11" value="4 Bytes" style="text;html=1;strokeColor=none;fillColor=none;align=center;verticalAlign=middle;whiteSpace=wrap;rounded=0;" parent="1" vertex="1">
                    <mxGeometry x="570" y="470" width="60" height="30" as="geometry"/>
                </mxCell>
                <mxCell id="12" value="&quot;Student&quot;" style="rounded=0;whiteSpace=wrap;html=1;fillColor=none;" vertex="1" parent="1">
                    <mxGeometry x="320" y="430" width="200" height="40" as="geometry"/>
                </mxCell>
                <mxCell id="13" value="8&lt;br&gt;(长度)" style="rounded=0;whiteSpace=wrap;html=1;fillColor=none;" vertex="1" parent="1">
                    <mxGeometry x="280" y="430" width="40" height="40" as="geometry"/>
                </mxCell>
                <mxCell id="14" value="size_type Bytes" style="text;html=1;strokeColor=none;fillColor=none;align=center;verticalAlign=middle;whiteSpace=wrap;rounded=0;" vertex="1" parent="1">
                    <mxGeometry x="270" y="480" width="60" height="30" as="geometry"/>
                </mxCell>
                <mxCell id="15" value="7 Bytes" style="text;html=1;strokeColor=none;fillColor=none;align=center;verticalAlign=middle;whiteSpace=wrap;rounded=0;" vertex="1" parent="1">
                    <mxGeometry x="390" y="470" width="60" height="30" as="geometry"/>
                </mxCell>
                <mxCell id="16" value="5&lt;br&gt;(长度)" style="rounded=0;whiteSpace=wrap;html=1;fillColor=none;" vertex="1" parent="1">
                    <mxGeometry x="680" y="430" width="40" height="40" as="geometry"/>
                </mxCell>
                <mxCell id="17" value="size_type Bytes" style="text;html=1;strokeColor=none;fillColor=none;align=center;verticalAlign=middle;whiteSpace=wrap;rounded=0;" vertex="1" parent="1">
                    <mxGeometry x="670" y="480" width="60" height="30" as="geometry"/>
                </mxCell>
                <mxCell id="18" value="&quot;Hello&quot;" style="rounded=0;whiteSpace=wrap;html=1;fillColor=none;" vertex="1" parent="1">
                    <mxGeometry x="720" y="430" width="120" height="40" as="geometry"/>
                </mxCell>
                <mxCell id="19" value="5 Bytes" style="text;html=1;strokeColor=none;fillColor=none;align=center;verticalAlign=middle;whiteSpace=wrap;rounded=0;" vertex="1" parent="1">
                    <mxGeometry x="750" y="480" width="60" height="30" as="geometry"/>
                </mxCell>
            </root>
        </mxGraphModel>
    </diagram>
</mxfile>